<?xml version="1.0" encoding="utf-8"?>
<!-- Generator: Adobe Illustrator 25.2.1, SVG Export Plug-In . SVG Version: 6.00 Build 0)  -->
<svg version="1.1" id="Layer_1" xmlns="http://www.w3.org/2000/svg" xmlns:xlink="http://www.w3.org/1999/xlink" x="0px" y="0px"
	 viewBox="0 0 303.9 303.7" style="enable-background:new 0 0 303.9 303.7;" xml:space="preserve">
<style type="text/css">
	.st0{fill:#20542C;}
</style>
<path class="st0" d="M146.2,54.4c2.8-5,5.3-9.7,7.8-14.3c5.5-9.7,11.8-19,18.7-27.7c2.7-3.4,5.2-3.6,7.5,0
	c11,17.3,20.1,35.5,19.4,56.8c-0.6,17.3-6.1,32.7-19,44.8c-2.6,2.5-4.1,5-3.9,8.7c0.3,4.5-1.5,8.7-2.3,13.4
	c8.2-7.4,18.8-11.9,21.9-24.7c3.7-15,15.5-24,28.5-31.2s27.2-11.7,41.5-15.7c11.7-3.3,23.4-6.8,34.4-12.2c1-0.4,2-0.6,3-0.9
	c-1.2,6.1-3.8,11.1-6.1,16.1c-9,19.8-18.2,39.4-34.4,54.6c-13.7,12.8-29.1,21.6-48.8,20.4c-1.5-0.2-3,0.1-4.4,0.7
	c-9.8,6.2-19.5,12.5-30.2,19.4c4.2,1.2,7.1,2.5,9.8-0.3c9.8-9.8,21.8-10.9,34.4-8.1c19.1,4.3,34.4,14.7,45.7,30.8
	c2.6,3.7,2.6,6.7-0.4,10.3c-3.2,3.6-6.8,6.8-10.8,9.6c-1.9,1.4-2.7,2.3-0.1,3.8c19.8,11.8,31.9,29.8,40.4,50.6
	c1.5,3.5,2.8,7.1,4.1,10.7c2,5.5,0.5,7.8-5.4,8.2c-15.3,1.1-29.9-2-43.7-8.3c-16.6-7.6-32.8-16.2-47.3-28.1c-0.8,2.2,0,4.1,0.2,6
	c2.6,21-5.4,38.4-18.4,54.2c-1.4,1.7-2.7,2.3-4.4,0.2c-14.9-18.2-26.3-38.1-31.8-61.1c-1.4-5-1.3-10.3,0.2-15.3
	c4.7-14.5-1.1-26.8-7.8-38.9c-1-1.8-2.4-2-4.2-1.6c-33.1,6.4-65.2,17.2-95.4,32.2c-5.1,2.6-9.6,6-13.5,10.2c-3,3.2-6.4,2.3-6.9-2.1
	c-0.7-6.9-2.8-12.8-7.8-17.9c-2.6-2.7,0.7-4.5,2.8-5.5c7-3.5,14.1-6.8,21.2-10C61.6,183,83,176,104.5,169.5c1.9-0.5,3.8-1.2,5.7-2
	c1.7-0.8,4.7-0.5,4.7-2.7c0-1.9-2.8-2.6-4.4-3.6c-3.8-2.6-8.6-3.1-12.8-1.5c-23.1,7.7-44,3.8-62.5-12.1c-10-8.6-21.2-15.6-31.7-23.5
	c-4.8-3.6-4.7-5,1-7.2c23.1-9.1,46.8-13.4,71.4-6.8c14.3,3.9,25.7,11.7,31.6,26c0.7,1.7,2,3.1,3.5,4.1c4.6,3.1,9.4,5.7,14.5,7.8
	c4.9,2,5.3,1.7,5.1-3.8c-0.2-6.1-2.2-11.8-4.7-17.2c-4.1-8.8-9-17.1-14.7-25C95.8,79.9,91.9,55.1,93.8,29.1
	c0.6-8.3,1.6-16.6,2.6-24.8c0.5-4.3,3.6-5.6,6.9-2.8c9.8,8.3,19.6,16.6,29,25.2c6.1,5.5,9.2,13,11.3,20.8
	C144.2,49.7,144.2,52.1,146.2,54.4z M157.3,162c8.4,0.2,15.9,1.2,23-4.2c7.8-6,16.4-10.9,24.4-16.5c3.1-2.3,6.9-3.4,10.7-3.1
	c16,1.1,29-5.9,41-15.5c2.2-1.6,3.3-4.3,2.6-7c-1.9-9.6-5.2-18.6-11.5-26.2c-7.9-9.4-13.1-10.6-23.4-4.2c-11.2,7-21.3,15.3-24.3,29
	c-0.9,4.8-3.4,9.1-7.1,12.2c-3.9,3.4-7.5,7.2-11.8,10C171,142.9,164.3,152,157.3,162z M289.7,274.3c1.8,0,3.7-0.1,5.5,0
	c4.2,0.3,5-1.3,3.3-5c-2.4-5.3-4.3-10.8-6.8-16.1c-8.1-17.5-19.6-32-36.6-41.7c-4.4-2.5-10.7-0.9-12.1,3.6
	c-3.6,11.3-10.1,21.5-18.9,29.5c-2.4,2.1-2.3,3.7,0.6,5.3c7,3.9,13.8,8.1,20.9,11.8C259.4,268.7,273.7,274.3,289.7,274.3z
	 M149.5,112.2c0.7-15.7-2.8-30.7-6-45.8c-0.5-2.2-1.4-3.7-3.8-3.8c-11.4-0.9-22.5-0.1-32.9,5.7c-4.1,2.3-5.6,4.7-3.7,9.5
	c4.2,10.6,10.4,20,16.4,29.6c7.8,12.4,15.6,24.9,15.3,40.4c0,1-0.1,2.2,1,2.6s1.8-0.5,2.4-1.3c5-5.9,10.7-11.1,10.7-20
	C149,123.6,149.3,117.9,149.5,112.2z M195.4,68.4c0-19.9-7.5-35.9-17-51.2c-1.4-2.3-2.6-2.1-4.1-0.1c-9.9,13.2-19.6,26.7-25.1,42.4
	c-4.1,11.7,2.6,24.8,16.9,25.7c7,0.4,14-0.9,20.3-4C192.5,78.4,197.2,74.8,195.4,68.4L195.4,68.4z M149.6,175.8
	c-0.6-7.4-1.6-12.7-5.9-16.8c-2.7-2.5-5.2-3.1-8.3-0.4c-6.3,5.3-13.5,9.3-21.3,11.9c-14,4.8-28.2,9.1-42.2,13.9
	C56,190,40.5,196.5,25.4,203.9c-2.8,1.4-4,2.6-1.6,5.5c2.5,3,4,6.6,4.5,10.4c0.5,3.8,1.8,3.7,4.2,1.5c7.6-6.7,16.7-10.9,25.9-14.8
	c27.6-11.9,56.3-20.7,85.8-26.2C148.2,179.7,150,178,149.6,175.8L149.6,175.8z M233.9,208.3c12.5,0.8,22.8-5.1,31.6-14.6
	c2.2-2.3,2.5-4.3,0.5-6.9c-8.2-11.4-19.5-20.2-32.6-25.4c-1.8-0.9-3.9-1.1-5.8-0.6c-8.5,2.7-15.9,7.1-20.4,15
	c-4.4,7.6-2.4,15.3,0.6,23c2.6,6.4,7.7,8,13.8,8.7C225.7,208.1,229.8,208.3,233.9,208.3z M52.7,143.8c0,10.3,1,11.6,9,13.7
	c11,2.9,22.1,2.8,32.4-1.3c8.1-3.2,14.9-1.8,21,3c5,3.9,8.8,2.5,12.9-0.6c1.1-0.9,3-1.4,2.6-3.2c-0.3-1.5-1.9-1.7-3.1-2.1
	c-6.2-2.2-11.8-5.4-17.4-8.6c-2.9-1.6-5.2-4.2-6.6-7.2c-6.6-14.8-19.2-21.5-34.2-24.7c-2.2-0.5-4.3-0.3-5.7,1.9
	C57.4,124.1,53.2,134.3,52.7,143.8z M170.3,252.1c8.7-0.7,17-3.8,23.9-9.1c6.7-5,6.9-5.6,2.4-12.9c-11.2-17.7-26.4-31.7-41.6-45.6
	c-1.3-1.5-3.5-1.7-5-0.4c-1.7,1.2-0.6,2.7,0,4s1.2,2.4,1.8,3.6c5.9,11.3,8.6,23,4.8,35.7c-1.6,5.1-1,10.2,0.3,15.3
	C159,250.9,160.6,252.2,170.3,252.1z M97.6,40.3c-0.1,8.3,0.7,16.6,2.2,24.8c0.4,2.3,1,4.4,4.2,2.4c10.2-6.6,22.4-9.2,34.3-7.5
	c2.3,0.3,3.6-0.4,3.1-3c-1.9-10.1-4.1-20-12.1-27.3C120.9,22,112.1,14.6,103.5,7c-3.3-3-3.5-0.1-3.7,2
	C98.8,19.4,97.7,29.8,97.6,40.3z M151.6,82.1c1.3,10.3,1.4,19.8,4,28.6c3.6,12.6,2,23.2-6.7,32.9c-2.3,2.6-6,5-6,8.2
	c0,2.1,4.1,3.9,5.9,6.3c2.1,2.8,3.6,2,5.4-0.1c5.5-6.5,10.7-13.2,14.4-20.9c2.3-4.9,4.2-9.8,3.9-15.3c-0.2-4.2,1.4-7.1,4.6-9.9
	c9.3-8.3,14.6-18.9,17-31.9C180,87.6,166.5,91.9,151.6,82.1L151.6,82.1z M237.3,78.8c13.7,7.3,20,19.2,23.4,33.1
	c0.4,1.4,0.2,3.5,1.5,4c1.9,0.6,2.8-1.5,3.8-2.7c13-14.9,21.5-32.4,29.1-50.4c0.4-0.9,1.1-1.9,0-2.7c-0.9-0.7-1.9,0-2.8,0.4
	c-11.2,4.2-22.9,7.2-34.3,10.7C251.2,73.3,244.4,75.3,237.3,78.8L237.3,78.8z M159.8,182.4c7.7,6.7,13.6,15.5,22,20.9
	c9.1,5.8,14.9,13.5,19.7,22.5c3.6,6.8,7.6,13.4,14,17.9c1.7,1.2,3.1,2.6,5.2,0.7c8.9-7.9,15.8-17.1,19.4-28.6
	c0.7-2.4,0.2-3.4-2.5-3.2c-13.4,1-26.2-2-38.6-6.4c-7.1-2.5-12.5-7-14.5-14.7c-0.3-1.7-1.4-3-3-3.7
	C174.6,184.9,167.3,183,159.8,182.4z M169,254.5c-1.2,0-2.3,0-3.5-0.2c-4.2-1-5,0.3-3.4,4.2c5.4,13.1,12.6,25.4,21.6,36.3
	c1.3,1.6,2.5,3.9,4.8,0.7c10.6-14.8,17-30.8,13.9-49.5c-0.9-5.5-1.2-5.6-5.5-2.4C188.4,250.3,179,254.5,169,254.5z M225.1,158.6
	c-12.6-2.2-23.5-2.6-32.3,6.6c-2.5,2.6-5.1,3.2-8.5,2.8c-8.3-0.9-16.6-2.1-24.9-1.3c-2.8,0.3-5.7,0.3-5.7,4.6s2,5.4,5.8,5.8
	c8.2,0.8,15.9,3.3,23.6,6.4c3.1,1,5.3,3.6,6,6.7c1.9,7.6,10.1,13.1,18.3,13C198,183.7,200.6,170.9,225.1,158.6z M5.9,120.8
	c5.9,4.2,11,7.7,15.9,11.4c8,5.9,16,12,24,17.9c1.1,0.8,2.4,2.5,3.9,1.6s0.5-2.8,0.7-4.2c0.3-2.8,0.2-5.7,0.7-8.4
	c1.4-8.4,4.6-16.4,9.2-23.6c1-1.6,2.8-3.8-1.1-4C41,110.3,23.7,113.6,5.9,120.8z"/>
</svg>
