<svg id="Layer_1" data-name="Layer 1" xmlns="http://www.w3.org/2000/svg" viewBox="0 0 303.93 303.7"><defs><style>.cls-1{fill:#606060;}</style></defs><path class="cls-1" d="M158.66,63.1c2.75-5,5.27-9.65,7.83-14.26A217.56,217.56,0,0,1,185.18,21.1c2.66-3.41,5.22-3.56,7.48,0,11,17.34,20.12,35.45,19.4,56.78-.59,17.29-6.06,32.69-19,44.75-2.64,2.46-4.09,5-3.87,8.69.29,4.53-1.53,8.74-2.29,13.36,8.2-7.42,18.8-11.89,21.94-24.66,3.7-15,15.53-24,28.49-31.25s27.22-11.66,41.52-15.68c11.71-3.29,23.37-6.77,34.36-12.16a20.62,20.62,0,0,1,3-.86c-1.17,6.09-3.77,11.08-6.06,16.12-9,19.76-18.22,39.45-34.43,54.59-13.67,12.76-29.14,21.65-48.78,20.45a7.79,7.79,0,0,0-4.35.71c-9.83,6.18-19.54,12.52-30.19,19.4,4.16,1.23,7.05,2.51,9.83-.28C212,161.24,224,160.13,236.61,163c19.14,4.34,34.38,14.72,45.75,30.8,2.6,3.68,2.65,6.71-.41,10.26a60.89,60.89,0,0,1-10.77,9.6c-1.89,1.37-2.67,2.29-.07,3.84,19.79,11.81,31.85,29.83,40.37,50.64,1.45,3.55,2.8,7.14,4.11,10.74,2,5.49.47,7.79-5.39,8.23-15.32,1.15-29.88-2-43.73-8.32-16.63-7.65-32.76-16.2-47.3-28.11-.79,2.19,0,4.1.22,6,2.58,21-5.45,38.42-18.36,54.19-1.41,1.72-2.66,2.32-4.37.23C181.8,292.9,170.32,273,164.81,250a27.94,27.94,0,0,1,.21-15.31c4.67-14.47-1.1-26.77-7.76-38.94-1-1.8-2.39-2-4.21-1.65a376.92,376.92,0,0,0-95.36,32.16,49.59,49.59,0,0,0-13.53,10.17c-3,3.17-6.41,2.3-6.86-2.14-.7-6.92-2.85-12.75-7.77-17.87-2.61-2.71.69-4.47,2.78-5.51q10.52-5.2,21.25-10c20.57-9.22,41.93-16.25,63.48-22.73a48.51,48.51,0,0,0,5.66-2c1.72-.76,4.72-.51,4.74-2.73,0-1.88-2.78-2.58-4.43-3.64a14,14,0,0,0-12.81-1.49c-23.06,7.74-44,3.8-62.55-12.11-10-8.57-21.21-15.58-31.71-23.5-4.81-3.63-4.67-5,1-7.17,23.13-9.06,46.81-13.43,71.36-6.78,14.3,3.88,25.71,11.74,31.61,26a9.12,9.12,0,0,0,3.52,4.07,80.1,80.1,0,0,0,14.5,7.81c4.89,2,5.29,1.7,5.09-3.78-.21-6.12-2.23-11.75-4.7-17.25a156.17,156.17,0,0,0-14.65-25c-15.32-22.06-19.22-46.81-17.39-72.89.58-8.3,1.63-16.57,2.63-24.83.53-4.31,3.63-5.61,6.95-2.79,9.78,8.29,19.57,16.58,29,25.22,6.07,5.54,9.16,13,11.31,20.82C156.75,58.36,156.74,60.77,158.66,63.1ZM169.8,170.7c8.45.17,15.95,1.21,23-4.16,7.78-6,16.35-10.89,24.45-16.46a16.1,16.1,0,0,1,10.73-3.14c16,1.14,29-5.9,41-15.55a6.65,6.65,0,0,0,2.63-7c-1.89-9.61-5.16-18.57-11.54-26.22-7.88-9.44-13.07-10.64-23.45-4.21-11.23,7-21.26,15.29-24.29,29.05a21.87,21.87,0,0,1-7.1,12.24c-3.87,3.4-7.5,7.22-11.8,10C183.48,151.56,176.8,160.65,169.8,170.7ZM302.18,283c1.83,0,3.67-.1,5.49,0,4.16.28,4.95-1.31,3.27-5-2.4-5.3-4.31-10.84-6.77-16.11-8.13-17.46-19.62-32-36.62-41.73-4.38-2.5-10.66-.85-12.12,3.59a66.67,66.67,0,0,1-18.94,29.49c-2.38,2.12-2.28,3.7.59,5.29,7,3.87,13.79,8.12,20.9,11.76C271.85,277.36,286.21,283,302.18,283ZM162,120.9c.73-15.65-2.8-30.73-6-45.85-.47-2.21-1.36-3.66-3.81-3.84-11.45-.88-22.54-.12-32.88,5.74-4.13,2.34-5.61,4.69-3.68,9.53,4.21,10.61,10.39,20,16.42,29.59,7.83,12.41,15.59,24.91,15.26,40.43,0,1-.07,2.16,1,2.61s1.8-.53,2.43-1.27c5-5.87,10.74-11.12,10.73-20C161.47,132.21,161.79,126.54,162,120.9Zm45.93-43.83c0-19.87-7.54-35.86-17-51.17-1.4-2.26-2.61-2.09-4.12-.09-9.93,13.21-19.6,26.74-25.05,42.41-4.06,11.65,2.57,24.79,16.95,25.72a40.78,40.78,0,0,0,20.34-4C205,87.07,209.7,83.5,207.91,77.07Zm-45.8,107.42c-.57-7.37-1.6-12.69-5.94-16.77-2.69-2.52-5.18-3.07-8.28-.38a63,63,0,0,1-21.27,11.85c-14,4.8-28.2,9.15-42.21,13.95A424.33,424.33,0,0,0,37.88,212.6c-2.8,1.35-4,2.56-1.56,5.51a20.58,20.58,0,0,1,4.51,10.45c.48,3.83,1.78,3.66,4.21,1.52,7.63-6.69,16.71-10.85,25.93-14.77a406.9,406.9,0,0,1,85.82-26.24C160.67,188.36,162.47,186.66,162.11,184.49ZM246.4,217c12.5.83,22.8-5.14,31.61-14.57,2.16-2.32,2.51-4.26.54-6.95a73.15,73.15,0,0,0-32.61-25.37,8.51,8.51,0,0,0-5.83-.64c-8.46,2.71-15.9,7.06-20.43,15-4.39,7.65-2.45,15.33.61,23,2.57,6.44,7.74,8,13.81,8.72A97.45,97.45,0,0,0,246.4,217ZM65.16,152.49c0,10.31,1,11.64,9,13.71,11,2.85,22.08,2.83,32.44-1.27,8.13-3.21,14.86-1.77,21,3,5,3.94,8.77,2.47,12.89-.65,1.15-.86,3-1.4,2.65-3.25-.27-1.52-1.93-1.67-3.15-2.09-6.17-2.16-11.81-5.35-17.42-8.63a15.39,15.39,0,0,1-6.55-7.25c-6.63-14.77-19.16-21.48-34.17-24.7-2.21-.47-4.28-.32-5.72,1.9C69.89,132.79,65.68,143,65.16,152.49ZM182.83,260.8a45.13,45.13,0,0,0,23.87-9.12c6.71-5,6.94-5.63,2.37-12.87-11.16-17.67-26.35-31.68-41.59-45.65a3.61,3.61,0,0,0-5-.43c-1.73,1.21-.62,2.68,0,4s1.17,2.4,1.79,3.58c5.93,11.3,8.62,23,4.75,35.65-1.55,5.08-1,10.2.31,15.3C171.47,259.55,173.11,260.88,182.83,260.8ZM110.12,49a130.6,130.6,0,0,0,2.2,24.81c.43,2.32,1,4.41,4.17,2.4a50.18,50.18,0,0,1,34.35-7.48c2.3.3,3.58-.39,3.1-3-1.86-10.08-4.13-20-12.1-27.32-8.48-7.73-17.23-15.16-25.8-22.79-3.34-3-3.51-.07-3.71,2C111.33,28.07,110.2,38.49,110.12,49Zm54,41.78c1.32,10.27,1.4,19.79,4,28.6,3.65,12.58,2,23.2-6.67,32.91-2.29,2.59-6,5-6,8.22,0,2.06,4.09,3.95,5.85,6.29,2.13,2.81,3.58,2,5.41-.14,5.54-6.47,10.7-13.19,14.37-20.94,2.3-4.86,4.22-9.84,3.9-15.33-.24-4.17,1.37-7.05,4.56-9.87,9.34-8.28,14.63-18.89,17-31.9C192.5,96.22,179,100.52,164.14,90.76Zm85.68-3.34c13.69,7.32,20,19.2,23.39,33.07.35,1.43.16,3.52,1.55,4,1.85.63,2.78-1.51,3.8-2.68,12.95-14.9,21.48-32.38,29.15-50.35.37-.86,1.08-1.94,0-2.7-.92-.65-1.92,0-2.83.37-11.25,4.2-22.86,7.21-34.33,10.71C263.75,81.91,256.9,83.91,249.82,87.42ZM172.25,191.06c7.68,6.7,13.6,15.48,22,20.86,9.06,5.84,14.9,13.46,19.73,22.54,3.61,6.78,7.58,13.35,14,17.95,1.67,1.19,3.14,2.59,5.25.73,8.92-7.87,15.82-17.08,19.37-28.59.72-2.37.17-3.39-2.54-3.18-13.38,1-26.16-2-38.63-6.39-7.09-2.51-12.5-7-14.46-14.66a5.07,5.07,0,0,0-3-3.69A65.65,65.65,0,0,0,172.25,191.06Zm9.25,72.13A25.71,25.71,0,0,1,178,263c-4.19-1-5,.31-3.35,4.25a143.47,143.47,0,0,0,21.56,36.34c1.34,1.65,2.54,3.89,4.81.72,10.63-14.83,17-30.8,13.87-49.48-.93-5.47-1.17-5.62-5.47-2.35C200.89,259,191.48,263.19,181.5,263.19Zm56.09-95.89c-12.64-2.19-23.54-2.6-32.34,6.63-2.46,2.57-5.09,3.21-8.52,2.84-8.27-.89-16.55-2.11-24.9-1.3-2.76.27-5.69.34-5.71,4.61s2,5.42,5.75,5.8c8.18.83,15.95,3.3,23.56,6.37a9,9,0,0,1,6,6.71c1.94,7.6,10.05,13.15,18.28,13C210.48,192.35,213.14,179.61,237.59,167.3ZM18.36,129.48c5.92,4.23,11,7.72,15.9,11.37,8,5.93,16,12,24,17.92,1.13.84,2.38,2.5,3.88,1.6s.52-2.76.65-4.2c.26-2.81.24-5.66.69-8.44a62.42,62.42,0,0,1,9.25-23.57c1-1.64,2.8-3.75-1.13-4C53.55,119,36.22,122.21,18.36,129.48Z" transform="translate(-12.5 -8.66)"/></svg>